<svg width="66" height="58" viewBox="0 0 66 58" fill="none" xmlns="http://www.w3.org/2000/svg">
<path d="M28.5338 46.4878C32.2886 47.1553 36.3665 48.2768 40.8376 48.5544C41.951 48.625 43.0971 48.6654 44.2855 48.722C46.7899 48.7388 50.4829 46.6316 53.1686 44.6798C53.81 44.2194 54.4033 43.7188 54.8479 43.2619C56.7728 41.3626 56.6694 39.512 56.3234 33.8586C56.3208 33.5504 56.3246 33.2314 56.3384 32.9021C56.6058 28.7699 55.2757 23.8709 53.2042 19.5418C52.062 17.1737 50.6607 14.9026 48.9747 12.9708C47.2652 11.0442 45.5722 9.32302 43.5509 7.87401C42.3653 7.01265 41.0661 6.19205 39.7544 5.3528L40.1105 5.48829C38.0145 4.81144 35.8354 3.9514 33.9087 3.29652C33.4236 3.14839 32.9165 3.02778 32.3892 2.9138L32.439 2.91875C31.4207 2.76344 30.3087 2.68397 29.2205 2.59876C27.9992 2.50628 26.7707 2.42639 25.543 2.3321C25.3721 2.31874 25.2079 2.26034 25.0877 2.16677C24.9658 2.07305 24.9 1.95263 24.9 1.82826C24.9004 1.70379 24.9665 1.58323 25.0874 1.48927C25.2065 1.39557 25.3685 1.33655 25.538 1.32135C26.7651 1.21213 27.9985 1.08828 29.2392 0.977276C30.3366 0.883598 31.4058 0.778489 32.5906 0.763207C32.6054 0.765109 32.65 0.767808 32.6646 0.770557C32.9618 0.785471 33.2605 0.803389 33.5654 0.828542C33.7125 1.37021 33.952 1.79736 34.4645 2.08938C34.7271 2.23842 35.117 2.37949 35.4378 2.37067C35.7257 2.3623 35.9625 2.27171 36.1916 2.18586C36.4288 2.09544 36.6546 2.00969 36.9056 2.02688C37.3351 2.05693 37.7764 1.95246 38.2365 1.8393C38.4047 1.7983 38.5741 1.75567 38.7498 1.71892C39.4727 1.84676 40.2101 1.97154 40.9437 2.09092C41.0379 2.11987 41.3063 2.20992 41.3905 2.26094C41.9074 2.48466 42.4257 2.70914 42.9475 2.93921C43.3743 3.22969 43.7715 3.49609 44.1373 3.67577C44.4645 3.83636 44.8122 3.90993 45.1729 3.96504C45.3656 4.05937 45.5586 4.15573 45.7511 4.25398C46.9982 4.88798 48.243 5.63712 49.4044 6.45358C50.1771 7.25461 50.937 8.10037 51.9423 9.13345C52.0625 9.25736 52.1812 9.38608 52.299 9.51854C52.6092 9.86534 52.8938 10.2301 53.1582 10.5865C53.7033 11.3213 54.1694 12.0274 54.6851 12.5599C55.029 12.9148 55.2855 13.3732 55.5276 13.8317C55.8527 14.4467 56.1528 15.0629 56.6529 15.4787C56.9674 15.7399 57.2849 15.9677 57.577 16.1823C58.0425 16.5254 58.4444 16.837 58.6629 17.2032C59.0726 17.89 59.5319 18.4318 59.9305 18.9219C60.4091 19.5105 60.7995 20.0247 60.8752 20.589C60.8866 20.6744 60.8955 20.7742 60.9046 20.8864C60.9521 21.4806 61.0159 22.4084 61.5902 23.5695C61.7942 23.9834 62.0723 24.3501 62.3392 24.715C62.7283 25.2489 63.0966 25.7887 63.1628 26.4534C63.1727 26.5529 63.1395 26.6671 63.1086 26.7705C63.0692 26.902 63.034 27.016 63.0981 27.0643C63.2863 27.2055 63.5132 27.4546 63.7548 27.7292C63.9322 27.9295 64.1193 28.1527 64.307 28.3553C64.6332 29.8065 64.8623 31.3275 64.9255 32.9181C64.938 33.076 64.9552 33.2475 64.9772 33.4311C65.0383 33.9449 65.1378 34.5505 65.2506 35.2257C65.0633 35.6002 64.9032 35.9991 64.7931 36.4287C64.6472 36.9909 64.667 37.7198 64.6243 38.7409C64.5894 39.4904 64.5204 40.4088 64.2388 41.4893C63.7469 43.4937 62.9238 45.5273 62.3045 46.7386C62.1756 47.001 62.045 47.2539 61.8918 47.5273C61.6867 47.8946 61.4487 48.2871 61.1348 48.7335C60.5887 49.5072 59.8446 50.4183 58.6626 51.5028C56.9031 53.1046 55.1969 54.1049 53.8675 54.7928C53.1881 55.1426 52.6061 55.4066 52.1581 55.616C51.3926 55.9745 50.4166 56.3637 49.3748 56.6805C47.7562 57.1897 45.9213 57.4578 44.7998 57.5288C44.4011 57.5593 43.9741 57.5822 43.4983 57.5796C43.4818 57.5795 43.4654 57.5794 43.4489 57.5792C42.6551 57.6154 41.6572 57.6734 40.2509 57.663C38.7462 57.6517 37.7966 57.5411 36.8077 57.355C36.4041 57.2793 36.0599 57.0608 35.7022 56.8339C35.1969 56.5117 34.6706 56.1742 33.9156 56.1992C33.7392 56.2049 33.5481 56.2347 33.3479 56.2654C32.9803 56.3218 32.5792 56.3806 32.1814 56.2966C32.0428 56.2674 31.9245 56.2016 31.8088 56.137C31.6815 56.0659 31.557 55.996 31.4093 55.976C30.8565 55.9013 30.3123 55.8456 29.8272 55.79C29.1997 55.7184 28.6685 55.6462 28.3486 55.5456C27.775 55.3659 27.1217 55.3199 26.4436 55.2512C25.9287 55.1995 25.4004 55.1348 24.8965 54.9911C23.8587 54.6918 22.4951 54.3613 20.9282 53.7815C20.4496 53.6134 19.9612 53.4471 19.4648 53.2808C18.7739 53.0481 18.2807 52.6727 17.6443 52.1785C17.2541 51.8734 16.8025 51.5186 16.2281 51.1222C15.8966 50.8942 15.5572 50.8326 15.2308 50.7664C14.9348 50.7081 14.6579 50.6502 14.4406 50.4718C14.2512 50.3154 14.2054 50.0798 14.1649 49.8574C14.1188 49.6091 14.0839 49.3804 13.8421 49.2774C13.7144 49.2232 13.527 49.2164 13.3015 49.2052C13.2114 49.2001 13.1155 49.1942 13.0159 49.1852C13.0391 49.1564 13.0572 49.129 13.0703 49.1079C13.1613 48.9575 12.9903 48.7437 12.8162 48.5263C12.7475 48.44 12.6798 48.3544 12.631 48.2747C12.4507 47.9814 11.9676 47.6339 11.592 47.3807C11.4293 47.2713 11.3167 47.1253 11.1892 46.9553C11.0719 46.8013 10.945 46.63 10.757 46.4424C10.6485 46.3344 10.588 46.2238 10.539 46.1322C10.5035 46.066 10.4741 46.0097 10.4345 45.97C10.4006 45.9359 10.3393 45.9517 10.2702 45.9693C10.2204 45.982 10.1663 45.9956 10.1158 45.9922C9.99444 45.9837 9.88406 45.9213 9.82596 45.8451C9.79974 45.8104 9.78647 45.7741 9.77345 45.7381C9.75829 45.6961 9.74358 45.6542 9.70853 45.6146C9.55012 45.4347 9.33031 45.3217 9.10844 45.2044C8.85973 45.071 8.60347 44.9283 8.40479 44.6657C8.34305 44.5838 8.2923 44.4825 8.24199 44.3819C8.18993 44.2772 8.14087 44.1759 8.08493 44.1044C7.85495 43.811 7.52601 43.6354 7.22321 43.4592C7.01902 43.3386 6.83122 43.2233 6.69324 43.0751C6.44441 42.8073 6.20571 42.7322 6.02771 42.6751C5.93564 42.6453 5.86074 42.621 5.8099 42.5727C5.77787 42.519 5.74642 42.464 5.71649 42.4097C5.69407 42.3565 5.67134 42.3015 5.63829 42.2577C5.63578 42.2544 5.633 42.2513 5.6305 42.248C5.54416 42.0796 5.46426 41.9057 5.39202 41.733C5.35885 41.6341 5.32529 41.5328 5.29016 41.4297C5.11895 40.9253 4.91957 40.3961 4.54187 39.908C4.45971 39.8016 4.33646 39.7199 4.20904 39.6323C4.05271 39.5246 3.89396 39.4148 3.80403 39.2521C3.59229 38.8687 3.45573 38.4232 3.32951 37.9762C3.13949 37.3042 2.97889 36.6391 2.57723 36.13C2.44533 35.9638 2.28143 35.8066 2.121 35.652C2.03114 35.5648 1.94083 35.4752 1.85643 35.3805C1.94243 35.3741 2.01941 35.3583 2.09117 35.3436C2.23907 35.313 2.36559 35.2873 2.50683 35.3494C2.84023 35.496 3.27701 35.6208 3.50035 35.49C3.56108 35.4548 3.63516 35.4306 3.70992 35.4067C3.8977 35.3467 4.08793 35.2847 4.08474 35.043C4.08282 34.8819 4.07035 34.4738 3.84627 34.2979C3.79705 34.2591 3.72499 34.2506 3.64479 34.2407C3.50068 34.2221 3.32933 34.2012 3.21804 33.9869C3.19936 33.9508 3.18015 33.9109 3.16094 33.8693C3.08389 33.703 3.00323 33.5203 2.88124 33.477C2.74094 33.4281 2.61517 33.4853 2.46884 33.5537C2.27818 33.6417 2.05262 33.752 1.70901 33.6447C1.64128 33.624 1.60064 33.5577 1.57006 33.5071C1.54851 33.4716 1.53172 33.4443 1.51381 33.4461C1.49328 33.4484 1.45606 33.4724 1.40909 33.5031C1.24366 33.61 0.953622 33.8064 0.823004 33.39C0.7877 33.2755 0.769518 33.1454 0.753483 33.0252C0.72998 32.849 0.712469 32.7008 0.655213 32.6939C0.633548 32.6916 0.610729 32.6917 0.587315 32.6929C0.561331 32.5558 0.536418 32.4174 0.512624 32.2779C0.53641 32.0841 0.48067 31.8455 0.416192 31.5342C0.400447 31.458 0.385077 31.3809 0.37008 31.2995C0.336761 31.0282 0.307485 30.7507 0.284528 30.4814C0.282307 30.2627 0.298417 30.0286 0.343289 29.7837C0.432573 29.2847 0.635216 28.8577 0.841751 28.4539C0.928864 28.2839 1.01688 28.1131 1.09827 27.9457C1.11117 28.0075 1.1262 28.0677 1.14549 28.1114C1.27795 28.4139 1.52057 28.5191 1.74288 28.6144C1.89098 28.6779 2.03088 28.7395 2.12646 28.8461C2.30199 29.0412 2.48758 29.003 2.62436 28.9774C2.69537 28.9638 2.75358 28.9533 2.79061 28.9771C2.82029 28.9963 2.83753 29.0446 2.85559 29.0941C2.87133 29.1374 2.88782 29.1812 2.9131 29.209C3.22128 29.5433 3.36899 29.4133 3.58431 29.2391C3.70315 29.1414 3.84396 29.0324 4.04297 28.9715C4.25457 28.9157 4.31785 28.923 4.41945 29.0889C4.5126 28.9432 4.60748 28.8016 4.70354 28.6586C4.69272 28.6063 4.6235 28.5709 4.50934 28.5211C4.30513 28.4326 4.21352 28.1071 4.14837 27.8436C4.11804 27.7251 4.09253 27.6203 4.0609 27.5611C3.89361 27.2451 3.67179 27.3378 3.47565 27.4263C3.36786 27.4743 3.26826 27.5194 3.19035 27.4874C3.15703 27.4737 3.12461 27.4948 3.09158 27.5161C3.06605 27.5326 3.04011 27.5495 3.01308 27.5508C2.81677 27.5607 2.66657 27.361 2.53019 27.1782C2.45196 27.0737 2.37769 26.9721 2.29955 26.9153C2.27573 26.898 2.25144 26.8842 2.22786 26.8711C2.19343 26.8521 2.16062 26.8335 2.13264 26.8044C2.06889 26.7392 2.02707 26.5977 1.98293 26.4526C1.96029 26.3769 1.93699 26.2973 1.90945 26.2214C1.87379 26.1229 1.79744 26.0848 1.71761 26.0445C1.66122 26.016 1.60316 25.986 1.55651 25.9326C1.53048 25.9028 1.5102 25.8639 1.49405 25.8191C1.45756 25.7263 1.44119 25.6072 1.42573 25.4948C1.416 25.424 1.40627 25.3556 1.3924 25.2979C1.38676 25.2744 1.37391 25.2627 1.35571 25.2594C1.30624 24.9916 1.25485 24.7474 1.20569 24.4935C0.958902 23.2545 0.750492 22.1571 1.06529 20.5662C1.12455 20.2732 1.14485 19.9314 1.14379 19.6033C1.31245 18.5479 1.50091 17.4916 1.72106 16.4298C1.92473 16.2364 2.10586 16.0042 2.26586 15.7121C2.5668 15.1633 2.70502 14.5881 2.89189 13.892C3.0281 13.3909 3.19412 12.8076 3.47908 12.1671C3.96528 11.0805 4.47391 9.97603 5.15942 8.72988C5.82404 7.48766 6.90325 6.14065 7.87928 5.39992C8.33462 5.03668 8.91565 4.80373 9.46738 4.66442C9.53755 4.64867 9.60723 4.63344 9.67618 4.61851C10.4566 4.44888 11.1566 4.31567 11.4261 3.89195C11.5126 3.75619 11.5691 3.56526 11.6259 3.37953C11.6666 3.24713 11.708 3.11745 11.7589 3.0121C11.9861 2.93561 12.2145 2.86073 12.4443 2.78848C12.9076 2.78578 13.5828 2.71881 14.1161 2.31377C14.3576 2.25267 14.6002 2.19459 14.8348 2.14288C15.3468 2.0277 15.8511 1.93122 16.3611 1.84902C16.5266 1.82268 16.6964 1.79693 16.8641 1.77351C16.8657 1.77332 16.8673 1.77313 16.8689 1.77294C17.2086 1.72533 17.5516 1.68421 17.8872 1.65156C18.0322 1.63724 18.1751 1.62455 18.3194 1.61275C18.6861 1.58274 19.0527 1.56058 19.4154 1.54654C19.6046 1.53961 19.8011 1.53344 19.9917 1.53035C20.305 1.52476 20.6196 1.52433 20.9311 1.52917C21.4374 1.53677 21.9356 1.558 22.4348 1.59015C22.5162 1.59552 22.5958 1.62169 22.6554 1.66436C22.7149 1.70711 22.7498 1.76259 22.7521 1.82114C22.7545 1.87974 22.7242 1.93804 22.6691 1.98576C22.614 2.03331 22.5383 2.06606 22.4591 2.07939C21.9723 2.16036 21.4915 2.25081 21.0092 2.35286C20.7125 2.41582 20.4155 2.48373 20.1218 2.55543C19.9433 2.5993 19.7601 2.64532 19.5847 2.69232C19.2482 2.78162 18.911 2.87786 18.5774 2.98019C18.4462 3.02052 18.3167 3.06161 18.1859 3.10411C17.8825 3.20303 17.5746 3.30887 17.2728 3.41974C17.271 3.4204 17.2691 3.42106 17.2673 3.42173C17.1196 3.47609 16.9707 3.53238 16.8263 3.58888C16.3776 3.76336 15.9395 3.94882 15.4979 4.14907C15.2703 4.25356 15.0341 4.36431 14.8015 4.47813C14.6722 4.54143 14.5435 4.60585 14.4178 4.67006C14.349 4.70497 14.2793 4.74048 14.2094 4.77647C12.9793 5.41438 11.8026 6.13455 10.6268 6.89741C10.3353 7.09493 10.0713 7.31303 9.8309 7.55303C8.80517 8.57296 8.22343 10.0225 7.84987 11.6275C7.47813 13.2386 7.30868 14.9805 7.21048 16.7494C7.05036 19.7938 7.10641 22.9133 7.193 26.0612C7.34649 30.6954 8.79619 33.5009 11.9762 37.8055C13.2157 39.5404 16.0215 41.3191 18.9658 42.8056C20.3468 43.5066 21.83 44.1931 23.3083 44.8419C23.7941 45.0552 24.2805 45.2651 24.7741 45.4752C25.4644 45.7574 26.3045 46.0094 27.219 46.2196C27.6346 46.3149 28.0703 46.4038 28.5338 46.4878Z" fill="#462713"/>
</svg>
