<svg width="58" height="58" viewBox="0 0 58 58" fill="none" xmlns="http://www.w3.org/2000/svg">
<path d="M30.7249 18.5589C31.4759 19.1172 32.1034 19.8405 32.701 20.6278C33.2694 21.4669 33.8947 22.3764 34.7592 23.0745C36.4931 24.4756 38.8287 25.3154 40.7364 26.9056C40.9388 27.0746 41.1328 27.2499 41.3171 27.4314C43.4898 29.5811 45.0428 31.8975 46.4029 33.9972C46.8687 34.7177 47.3104 35.414 47.726 36.0386L47.3337 35.6634C49.0258 37.4373 49.7493 38.869 50.6558 40.4059C51.9537 42.7148 53.0763 45.0325 54.1694 47.3596C54.9097 48.9395 55.6297 50.525 56.3503 52.1037C56.3677 52.1419 56.3851 52.18 56.4023 52.2179C56.7316 52.9204 56.9826 53.6185 57.2202 54.3024C57.4076 54.8444 57.5884 55.3842 57.7698 55.9242C57.7954 56.0005 57.7791 56.093 57.7238 56.1869C57.6684 56.2808 57.5785 56.367 57.4697 56.4272C57.3608 56.4875 57.2398 56.5179 57.131 56.5149C57.0224 56.5117 56.9359 56.476 56.8854 56.4136C56.5241 55.9688 56.1631 55.5236 55.8016 55.0875C55.3995 54.6029 55.0017 54.1371 54.5947 53.7283C54.8157 53.5166 54.9925 53.3163 55.0989 53.1249C55.1726 52.9927 55.2118 52.8634 55.2098 52.7381C55.2076 52.5825 55.127 52.4036 54.971 52.3456C54.8299 52.2922 54.6514 52.3017 54.4812 52.3107C54.3032 52.3202 54.1339 52.3285 54.0275 52.2646C53.8466 52.1556 53.5622 52.1261 53.2652 52.0977C53.1571 52.0875 53.0469 52.0769 52.9391 52.0619C52.5114 51.6285 52.0862 51.1969 51.6608 50.7647C51.5738 50.5446 51.4881 50.3447 51.3683 50.2097C51.2607 50.0883 51.0877 50.0289 50.8935 49.9852C50.8279 49.9186 50.7622 49.852 50.6966 49.7855C50.2729 49.3553 49.8503 48.9259 49.428 48.4986C49.2718 48.0423 49.0998 47.5715 48.7795 47.0258C48.6426 46.7923 48.5444 46.5303 48.4521 46.2826C48.3129 45.9128 48.1822 45.5678 47.9381 45.36C47.7767 45.2236 47.7015 45.0007 47.6301 44.7844C47.5317 44.4908 47.4348 44.2017 47.1168 44.1075C46.9172 44.0488 46.708 44.0224 46.511 43.9945C46.1973 43.9499 45.9303 43.9219 45.81 43.7895C45.5889 43.5471 45.2854 43.4247 45.023 43.3261C44.7021 43.2008 44.4411 43.11 44.4225 42.8462C44.42 42.8065 44.4205 42.7585 44.4215 42.7045C44.426 42.4199 44.4217 41.9503 43.9774 41.7061C43.8205 41.6209 43.6016 41.61 43.3954 41.6117C43.0938 41.6125 42.8144 41.634 42.7587 41.4565C42.7511 41.4307 42.7699 41.3684 42.7889 41.3135C42.8127 41.2433 42.8336 41.1825 42.7897 41.2133C42.7412 41.2475 42.6897 41.2822 42.6372 41.3192C42.5699 41.2473 42.3412 41.0627 42.2846 40.982C42.1611 40.9981 42.0238 41.0076 41.8788 41.0166C41.707 41.0264 41.5279 41.0394 41.3471 41.0606C40.7671 40.5285 40.2325 40.0111 39.7198 39.5113C39.4846 39.282 39.2543 39.0562 39.0274 38.8341C39.101 38.5631 39.1561 38.3056 39.1656 38.0725C39.1791 37.7692 39.0404 37.5048 38.8639 37.1707C38.7337 36.9246 38.5827 36.6402 38.452 36.2733C38.2095 35.5924 37.7038 35.1315 37.3074 34.9244C37.2235 34.8803 37.138 34.838 37.0462 34.7939C36.6983 34.6296 36.2644 34.4193 35.5442 34.0196C35.3649 33.921 35.1981 33.8259 35.0426 33.7351C34.5434 33.4278 34.1265 33.1297 33.7883 32.8894C33.554 32.723 33.3576 32.584 33.1963 32.49C32.9207 32.3295 32.5894 32.1196 32.2538 31.9073C31.7289 31.5754 31.1927 31.2359 30.8569 31.0801C30.7374 31.0247 30.6084 30.971 30.4687 30.9119C30.0818 30.7483 29.6125 30.5491 29.025 30.1758C28.4073 29.7825 28.0867 29.4454 27.7952 29.0433C27.6759 28.8791 27.6692 28.6185 27.6635 28.3493C27.6554 27.9672 27.6509 27.5706 27.3216 27.3982C27.2443 27.3576 27.1464 27.3327 27.0429 27.3054C26.9395 27.278 26.8315 27.2491 26.736 27.2022C26.6692 27.1751 26.6109 27.1355 26.5706 27.0734C26.54 27.0261 26.5384 26.9539 26.5378 26.8842C26.5369 26.8073 26.5354 26.7316 26.4935 26.6906C26.3364 26.537 26.1653 26.4066 26.0122 26.2915C25.8132 26.1417 25.6454 26.0178 25.5737 25.8979C25.4482 25.6861 25.2026 25.5794 24.9522 25.4726C24.7621 25.3919 24.5672 25.3097 24.4211 25.179C24.0022 24.8039 23.3008 24.4323 22.5132 24.1228C22.2154 24.0057 22.0812 23.7509 21.907 23.4233C21.7986 23.2195 21.6749 22.9872 21.4858 22.7428C21.3786 22.6044 21.1988 22.6035 21.0329 22.6029C20.88 22.6024 20.7378 22.6012 20.6734 22.4928C20.6167 22.3969 20.6735 22.213 20.7273 22.0382C20.7872 21.8437 20.8436 21.6607 20.7355 21.6233C20.6781 21.6034 20.5671 21.6332 20.4352 21.6685C20.383 21.6825 20.3275 21.6971 20.2707 21.7102C20.2943 21.682 20.3145 21.656 20.3295 21.6362C20.4352 21.4959 20.4022 21.3552 20.3692 21.2168C20.3559 21.1615 20.3426 21.1066 20.3385 21.0525C20.3238 20.8534 20.1387 20.6833 19.982 20.5736C19.9161 20.5274 19.8899 20.4394 19.8598 20.3369C19.833 20.2458 19.8031 20.1433 19.7385 20.0479C19.7011 19.9931 19.6935 19.9234 19.6875 19.8655C19.6832 19.8236 19.6796 19.7879 19.6657 19.7687C19.6537 19.7521 19.6106 19.7826 19.5621 19.817C19.5272 19.8418 19.4894 19.8685 19.4583 19.8812C19.384 19.9114 19.3296 19.8962 19.3133 19.8559C19.3058 19.8373 19.3069 19.8135 19.308 19.7899C19.3092 19.7623 19.3107 19.7346 19.2985 19.7152C19.2421 19.6263 19.1321 19.6146 19.0163 19.6012C18.889 19.5864 18.7565 19.5709 18.6869 19.4533C18.6647 19.4161 18.6527 19.3607 18.6415 19.3071C18.6297 19.251 18.6182 19.1967 18.5957 19.1673C18.505 19.0483 18.3183 19.0627 18.1477 19.0766C18.0342 19.0858 17.9272 19.0942 17.8579 19.0612C17.7316 19.0011 17.5814 19.075 17.4704 19.1294C17.4131 19.1578 17.3651 19.1805 17.3373 19.1768C17.3224 19.1598 17.3077 19.1419 17.2938 19.124C17.2847 19.1028 17.2754 19.0809 17.2578 19.0716C17.2565 19.0709 17.2549 19.0705 17.2536 19.0698C17.2139 19.0136 17.1777 18.9545 17.1434 18.8941C17.1146 18.8426 17.0871 18.7902 17.0598 18.7379C16.9272 18.4847 16.8031 18.2395 16.5483 18.1201C16.4938 18.0948 16.4087 18.1067 16.3222 18.1189C16.2164 18.1338 16.1083 18.1492 16.0522 18.0974C15.9157 17.9717 15.8336 17.7753 15.7549 17.5835C15.6359 17.2945 15.5156 17.0089 15.2235 16.985C15.1256 16.9759 15.0072 16.9963 14.8885 17.0173C14.8223 17.029 14.7558 17.041 14.693 17.0478C14.7518 16.9892 14.804 16.9318 14.8527 16.8783C14.9531 16.7679 15.039 16.6735 15.1402 16.6157C15.3793 16.4792 15.6898 16.2764 15.8396 16.0674C15.8802 16.0107 15.9308 15.9518 15.9819 15.8926C16.1101 15.7441 16.2408 15.5923 16.2227 15.4621C16.2105 15.3744 16.1694 15.1626 15.9952 15.2155C15.9572 15.227 15.9062 15.2691 15.8494 15.3159C15.7475 15.4 15.6266 15.4995 15.5262 15.4651C15.5093 15.4593 15.4917 15.4522 15.4738 15.4444C15.4026 15.4133 15.3234 15.3786 15.2343 15.4404C15.1316 15.5117 15.0521 15.6237 14.9594 15.7542C14.8387 15.9243 14.6953 16.1263 14.4491 16.3113C14.4004 16.3478 14.365 16.3454 14.3383 16.3437C14.3194 16.3425 14.3048 16.3418 14.2928 16.355C14.2791 16.3701 14.2565 16.4063 14.228 16.4521C14.1275 16.6139 13.9513 16.8962 13.817 16.807C13.7803 16.7825 13.7502 16.7384 13.7237 16.699C13.6845 16.641 13.6521 16.5931 13.6126 16.6307C13.5976 16.645 13.5822 16.6612 13.5666 16.6782C13.5293 16.6401 13.4921 16.6021 13.4551 16.5642C13.4423 16.4715 13.3665 16.4181 13.2676 16.3483C13.2438 16.3315 13.2189 16.3137 13.1936 16.2947C13.1201 16.2189 13.0471 16.1436 12.9749 16.0685C12.9289 15.9967 12.8859 15.9054 12.8575 15.7922C12.7994 15.5644 12.8231 15.2842 12.8398 15.005C12.8476 14.8879 12.8557 14.772 12.858 14.6622C12.8851 14.6701 12.9113 14.6749 12.9364 14.6726C13.1078 14.6569 13.2938 14.505 13.4649 14.3651C13.5789 14.2722 13.6856 14.184 13.777 14.1451C13.9444 14.0738 14.0548 13.9221 14.1363 13.8099C14.1786 13.7517 14.2135 13.7041 14.2443 13.684C14.269 13.6679 14.294 13.671 14.3198 13.6742C14.3423 13.677 14.3657 13.6797 14.3898 13.6701C14.6826 13.5529 14.7455 13.3994 14.837 13.1759C14.8876 13.0526 14.9471 12.9082 15.0586 12.7367C15.1798 12.5577 15.2236 12.5121 15.3406 12.4958C15.3576 12.3731 15.3748 12.2506 15.3922 12.1282C15.3686 12.1182 15.3125 12.1585 15.223 12.2285C15.0622 12.3527 14.8957 12.3119 14.7667 12.2809C14.7069 12.2665 14.655 12.2542 14.6148 12.2608C14.4014 12.2962 14.2942 12.4976 14.1997 12.6746C14.1478 12.7721 14.0996 12.8623 14.0399 12.9135C14.0144 12.9354 14.0008 12.9666 13.987 12.9983C13.9762 13.0228 13.9654 13.0478 13.9487 13.0691C13.8272 13.2235 13.6702 13.2846 13.5218 13.3393C13.4372 13.3709 13.3564 13.4015 13.2885 13.4475C13.2678 13.4615 13.248 13.4769 13.2289 13.4919C13.201 13.5138 13.1743 13.5346 13.1471 13.549C13.0852 13.5816 13.0133 13.5795 12.9349 13.5772C12.8947 13.5761 12.8528 13.5749 12.8096 13.5784C12.7535 13.5828 12.6937 13.6345 12.6304 13.6878C12.5858 13.7255 12.5397 13.7643 12.4924 13.7888C12.4069 13.833 12.3256 13.8086 12.2505 13.7862C12.2178 13.7765 12.1861 13.7674 12.1558 13.7641C12.1434 13.7628 12.1312 13.7701 12.1188 13.7837C11.9882 13.7579 11.8602 13.7358 11.7347 13.714C11.1103 13.6087 10.5668 13.5154 10.13 12.9161C10.0485 12.8036 9.92791 12.7162 9.79617 12.648C9.47695 12.2928 9.16218 11.9379 8.84696 11.5801C8.88592 11.3844 8.88862 11.1959 8.85753 11.0214C8.79815 10.6929 8.62506 10.494 8.42004 10.2588C8.26954 10.0858 8.10178 9.89298 7.94871 9.61285C7.69309 9.14345 7.40682 8.69089 7.01759 8.26558C6.78469 8.01144 6.52436 7.74717 6.27884 7.51174C6.10227 7.34439 5.93636 7.18855 5.79287 7.058C5.59812 6.88085 5.4903 6.58258 5.39503 6.30645C5.26038 5.91757 5.14817 5.57066 4.8256 5.64472C4.72231 5.66821 4.57849 5.74035 4.4386 5.8102C4.33896 5.85995 4.24145 5.9083 4.1613 5.93756C4.09703 5.8488 4.03418 5.76139 3.97056 5.67245C3.95088 5.41337 3.8635 5.07494 3.52259 5.03642C3.45865 4.9452 3.39637 4.85566 3.33553 4.76705C3.20351 4.57741 3.0741 4.38969 2.94566 4.20389C2.90312 4.14239 2.86103 4.08143 2.81861 4.02028C2.81823 4.01967 2.81784 4.01906 2.81745 4.01845C2.73105 3.89446 2.64425 3.77075 2.56044 3.65073C2.5234 3.59842 2.48687 3.54682 2.45085 3.49595C2.35745 3.36517 2.26335 3.23562 2.17126 3.11014C2.12119 3.04255 2.07329 2.9777 2.02186 2.91075C1.94183 2.80479 1.85815 2.69853 1.77427 2.59617C1.6394 2.43139 1.50202 2.27412 1.36214 2.13752C1.33873 2.1148 1.32552 2.07523 1.3253 2.02517C1.32514 1.97504 1.33708 1.91818 1.36092 1.86463C1.38482 1.81111 1.41985 1.7642 1.46155 1.73376C1.50297 1.70336 1.5482 1.69283 1.58576 1.70169C1.81103 1.75452 2.03445 1.83383 2.2538 1.92192C2.39002 1.97697 2.52569 2.03606 2.65684 2.09556C2.73999 2.13403 2.81862 2.17057 2.89989 2.20984C3.05039 2.28185 3.20266 2.35855 3.35296 2.43641C3.4114 2.46636 3.47031 2.49703 3.52968 2.52837C3.66593 2.59934 3.80452 2.6743 3.94193 2.74937C3.94276 2.74983 3.94359 2.7503 3.94442 2.75076C4.01139 2.78713 4.07808 2.82345 4.14485 2.86021C4.34806 2.97203 4.55056 3.08547 4.75325 3.20036C4.86007 3.26003 4.96763 3.32133 5.07688 3.38378C5.13685 3.41777 5.19699 3.45181 5.25631 3.48531C5.28863 3.5038 5.32123 3.52265 5.35369 3.54131C6.10629 3.96909 6.84435 4.38651 7.58049 4.77149C7.78519 4.87833 7.98952 4.98244 8.19271 5.08249C8.75004 5.36655 9.30812 5.65898 9.85717 5.95015C10.6235 6.35787 11.3808 6.76995 12.1334 7.18676C15.4462 9.02377 18.702 10.9136 21.9043 12.883C23.2535 13.6998 24.6723 14.5426 26.0912 15.4304C26.7519 15.8431 27.4303 16.2792 28.094 16.719C28.7651 17.1646 29.4225 17.6139 30.0959 18.0987C30.2998 18.2451 30.5097 18.3986 30.7249 18.5589Z" fill="#462713"/>
<path d="M16.155 26.0111C17.2593 25.1061 18.6165 24.6094 19.8985 24.0528C20.4484 23.8411 20.9875 23.5743 21.4618 23.1989C23.2192 21.8072 24.2367 19.5441 25.8954 17.9039C27.5662 16.2574 29.2105 14.4948 31.0461 12.6056C31.1626 12.4869 31.2864 12.3598 31.405 12.2406C33.3527 10.2106 35.7448 8.5069 38.2118 7.37231C40.846 6.14325 43.4198 5.51866 45.7867 4.7905C46.4567 4.58516 47.1161 4.37104 47.7664 4.13543C47.7945 4.11376 47.8927 4.07308 47.9231 4.05474C48.9241 3.80549 49.9208 3.56687 50.9117 3.32292C51.6076 3.15135 52.2992 2.9773 52.9911 2.79395C52.9942 2.79196 53.0047 2.7882 53.0079 2.78631C53.0574 2.77437 53.1066 2.76275 53.1558 2.75136C53.7332 2.61683 54.3115 2.51625 54.8809 2.42988C54.9602 2.41794 55.0507 2.4494 55.1336 2.52018C55.2166 2.59112 55.2852 2.69484 55.3255 2.81253C55.3657 2.9303 55.3749 3.05464 55.3528 3.16127C55.3305 3.26763 55.2785 3.34711 55.2096 3.3857C54.7083 3.6638 54.2327 3.94464 53.7784 4.24837C53.7439 4.27136 53.7097 4.29438 53.6752 4.31767L53.7037 4.30472C53.2083 4.65288 52.7101 4.99565 52.2101 5.33421C51.9084 4.91033 51.6244 4.61374 51.3204 4.56254C51.1652 4.5365 50.9764 4.58106 50.8866 4.72488C50.806 4.85406 50.7809 5.03151 50.757 5.20055C50.7322 5.3773 50.7086 5.54512 50.6235 5.63836C50.4794 5.79655 50.3971 6.06999 50.3108 6.35718C50.2792 6.46177 50.2476 6.56812 50.2118 6.6715C49.9219 6.86439 49.6328 7.05673 49.3443 7.24916L49.541 7.14789C49.3234 7.3275 49.107 7.5021 48.8867 7.67523C48.645 7.74766 48.4252 7.81694 48.2673 7.92523C48.1261 8.02212 48.0372 8.19094 47.9614 8.38184C47.8819 8.44099 47.8027 8.49967 47.7228 8.55841C47.209 8.93596 46.6946 9.29976 46.1891 9.65554C45.7016 9.7421 45.2003 9.83715 44.6113 10.0627C44.3577 10.1599 44.088 10.2121 43.8303 10.2635C43.4498 10.3392 43.0941 10.4138 42.8607 10.622C42.7053 10.7609 42.4848 10.799 42.2652 10.8394C41.9713 10.8932 41.6765 10.9525 41.5589 11.2518C41.4856 11.4396 41.4408 11.6431 41.4016 11.8316C41.3397 12.1313 41.2945 12.391 41.166 12.4914C40.9258 12.6795 40.8021 12.9618 40.7014 13.2091C40.5803 13.5066 40.4896 13.7551 40.2408 13.752C40.2029 13.7516 40.1567 13.748 40.1044 13.7439C39.8302 13.7217 39.376 13.7004 39.1277 14.1377C39.0381 14.2947 39.0254 14.5118 39.0152 14.7253C38.9983 15.0381 38.9999 15.33 38.7714 15.4264C38.7378 15.4402 38.6713 15.4237 38.6103 15.409C38.5328 15.3902 38.4647 15.3746 38.487 15.4261C38.5524 15.5774 38.6048 15.7655 38.6648 15.9689C38.7092 16.118 38.7592 16.2738 38.8193 16.4298C38.5703 16.7973 38.3388 17.1664 38.1095 17.5531C38.0318 17.6806 37.9462 17.8185 37.8653 17.9506C37.7022 18.2162 37.5327 18.4907 37.3645 18.7624C37.0817 18.753 36.8157 18.7592 36.5819 18.8059C36.2751 18.8684 36.0381 19.0723 35.7313 19.3342C35.5029 19.5304 35.2371 19.7573 34.8778 19.9817C34.2109 20.4 33.7764 21.0318 33.5705 21.5048C33.5275 21.6043 33.4851 21.7059 33.4395 21.8155C33.2678 22.228 33.0528 22.7489 32.511 23.6453C31.9963 24.4939 31.4546 25.144 31.0393 25.6276C30.8283 25.8735 30.6477 26.0785 30.5214 26.2451C30.3046 26.531 30.0225 26.8699 29.731 27.2081C29.2771 27.7363 28.7979 28.2603 28.5536 28.5911C28.4667 28.7091 28.3783 28.8372 28.2817 28.9746C28.013 29.3555 27.6805 29.8166 27.1253 30.3567C26.5404 30.9229 26.0936 31.1808 25.5942 31.3885C25.4099 31.4648 25.1733 31.4301 24.9276 31.3807C24.9049 31.3735 24.882 31.3663 24.859 31.3591C24.5118 31.2516 24.1452 31.1428 23.9303 31.4009C23.8814 31.4603 23.8425 31.544 23.8012 31.6324C23.7227 31.7966 23.6495 31.9667 23.483 32.0325C23.4244 32.0558 23.3538 32.0412 23.282 32.0287C23.2035 32.0146 23.1263 32.0012 23.0733 32.0352C22.8731 32.1638 22.7007 32.3041 22.5422 32.4334C22.3431 32.5964 22.1711 32.7381 22.0369 32.7794C21.7928 32.8565 21.6271 33.071 21.4568 33.2922C21.3296 33.4589 21.2003 33.6295 21.0358 33.7409C20.5649 34.0594 20.0349 34.6473 19.5635 35.3273C19.3863 35.5836 19.1124 35.6505 18.7626 35.7378C18.5434 35.7935 18.2978 35.8542 18.025 35.9786C17.8713 36.0484 17.8365 36.2194 17.8044 36.3777C17.7748 36.5237 17.748 36.6584 17.6333 36.6943C17.5317 36.7262 17.3663 36.63 17.2087 36.5391C17.0335 36.4379 16.8677 36.3435 16.8126 36.4386C16.7835 36.489 16.7929 36.6013 16.8045 36.7347C16.8091 36.7874 16.8138 36.8434 16.8168 36.9003C16.7938 36.8716 16.7723 36.8468 16.7559 36.8281C16.6395 36.6965 16.4989 36.6975 16.3606 36.6994C16.3054 36.7002 16.2508 36.7011 16.1983 36.6933C16.005 36.6648 15.8118 36.8063 15.6824 36.9341C15.6278 36.9878 15.5399 36.9946 15.4371 37.0028C15.3458 37.0101 15.2428 37.0186 15.1414 37.0623C15.0835 37.0872 15.0154 37.0812 14.959 37.0757C14.9181 37.0718 14.8831 37.0685 14.8627 37.0782C14.8451 37.0866 14.8685 37.1336 14.895 37.1865C14.9141 37.2246 14.9348 37.2659 14.9428 37.298C14.9619 37.3748 14.9401 37.4239 14.8995 37.4317C14.8808 37.4353 14.8581 37.4298 14.8355 37.4244C14.8092 37.418 14.7828 37.4114 14.7627 37.4195C14.6702 37.4567 14.6443 37.5607 14.6184 37.6682C14.5897 37.7865 14.5604 37.9094 14.4398 37.9556C14.4018 37.9702 14.3477 37.9717 14.2952 37.9731C14.2402 37.9747 14.1869 37.9764 14.1564 37.9929C14.0323 38.0601 14.0299 38.2392 14.0289 38.4033C14.0282 38.5125 14.0279 38.6151 13.992 38.6747C13.9262 38.7839 13.9871 38.9371 14.0324 39.0498C14.0558 39.1082 14.0753 39.156 14.0705 39.1814C14.0537 39.1925 14.0361 39.2033 14.0186 39.2135C13.9981 39.2186 13.9769 39.2238 13.9674 39.2388C13.9667 39.24 13.9662 39.2414 13.9655 39.2425C13.8629 39.2953 13.7509 39.3365 13.6395 39.3778C13.3894 39.4704 13.1418 39.565 13.0189 39.7929C12.9925 39.842 13.001 39.9246 13.0099 40.0084C13.0209 40.111 13.0325 40.2158 12.9808 40.2642C12.8574 40.3797 12.6681 40.437 12.4811 40.4957C12.2 40.5838 11.9252 40.6744 11.9032 40.9529C11.8961 41.0446 11.9181 41.1578 11.9412 41.2711C11.9541 41.3342 11.9674 41.3977 11.9758 41.4572C11.9178 41.3979 11.8611 41.3449 11.8083 41.2955C11.6995 41.1936 11.6063 41.1064 11.5485 41.0066C11.4118 40.7712 11.2126 40.4613 11.0086 40.3049C10.9532 40.2626 10.8955 40.2105 10.8377 40.1579C10.6925 40.0259 10.5445 39.8908 10.4163 39.9026C10.33 39.9105 10.1205 39.943 10.1718 40.1167C10.183 40.1545 10.2246 40.2059 10.2708 40.263C10.3538 40.3657 10.4522 40.487 10.4206 40.5824C10.4153 40.5984 10.4086 40.6152 10.4014 40.6322C10.3724 40.6999 10.3401 40.7755 10.4029 40.8635C10.4752 40.9647 10.5869 41.0446 10.717 41.1379C10.8765 41.2523 11.0637 41.3877 11.2429 41.6042C11.2548 41.6166 11.2667 41.6294 11.2787 41.6423C11.3191 41.6861 11.3242 41.7123 11.3279 41.7323C11.3306 41.7465 11.3329 41.7576 11.3465 41.769C11.362 41.7822 11.3974 41.8058 11.442 41.8358C11.5994 41.9417 11.8725 42.1282 11.8286 42.2084C11.8164 42.2306 11.7858 42.2451 11.7576 42.2594C11.7161 42.2802 11.6803 42.3004 11.7213 42.3359C11.7369 42.3494 11.7542 42.3635 11.7723 42.3778C11.7468 42.4021 11.7229 42.4245 11.6975 42.4496C11.619 42.4492 11.5865 42.506 11.5442 42.5823C11.5339 42.6008 11.5228 42.6205 11.5105 42.6409C11.4575 42.6971 11.4056 42.7533 11.3512 42.8142C11.2942 42.8535 11.2196 42.8892 11.1195 42.9178C10.9223 42.9694 10.6533 42.9657 10.3859 42.9723C10.2733 42.975 10.1608 42.9795 10.0567 42.9865C10.0585 42.9615 10.0575 42.9376 10.0501 42.9154C10.0011 42.7599 9.82049 42.6036 9.65436 42.4592C9.5439 42.3631 9.44004 42.2721 9.38661 42.1904C9.28872 42.0408 9.12376 41.9518 9.00143 41.8864C8.93802 41.8524 8.88613 41.8245 8.86157 41.7973C8.84192 41.7755 8.8409 41.7514 8.83981 41.7266C8.83886 41.705 8.83775 41.6826 8.82451 41.6608C8.66381 41.3958 8.50642 41.3487 8.27406 41.2851C8.14603 41.2499 7.99533 41.2097 7.81022 41.1228C7.61628 41.0274 7.56485 40.9903 7.53341 40.8758C7.4093 40.8758 7.28466 40.8773 7.15953 40.8802C7.1524 40.906 7.19986 40.9566 7.28153 41.036C7.42796 41.1766 7.40817 41.3551 7.39946 41.4857C7.3949 41.5469 7.3911 41.6006 7.40416 41.6393C7.47374 41.8457 7.69124 41.916 7.88153 41.9794C7.98634 42.0143 8.08312 42.047 8.14373 42.0971C8.16967 42.1184 8.20259 42.1267 8.23609 42.1353C8.26199 42.1419 8.28834 42.1487 8.31211 42.1616C8.48462 42.2556 8.57208 42.3983 8.65403 42.5306C8.70094 42.6063 8.74624 42.6788 8.80408 42.7365C8.82171 42.7541 8.84046 42.7706 8.85875 42.7865C8.88547 42.8097 8.91086 42.8319 8.93012 42.8556C8.97407 42.9094 8.98563 42.9793 9.00042 43.0519C9.00777 43.0896 9.01546 43.1289 9.02792 43.169C9.04408 43.2209 9.10638 43.2693 9.17144 43.32C9.21741 43.3558 9.26471 43.3928 9.29865 43.4329C9.35999 43.5054 9.35474 43.5841 9.34983 43.6579C9.34769 43.69 9.34593 43.7213 9.34951 43.7503C9.35097 43.7622 9.3607 43.7725 9.37654 43.7817C9.37924 43.9113 9.39013 44.029 9.39901 44.1488C9.44274 44.7526 9.49619 45.2605 9.04066 45.7972C8.95367 45.901 8.90528 46.0273 8.87567 46.167C8.62411 46.5461 8.37464 46.9282 8.12576 47.3156C7.92798 47.3305 7.74852 47.3757 7.59093 47.453C7.2947 47.599 7.15664 47.8163 6.99449 48.0759C6.87463 48.2678 6.74199 48.4816 6.52325 48.7075C6.15563 49.0876 5.81499 49.4976 5.53595 49.9991C5.25701 50.5008 4.97929 51.0908 4.80898 51.5164C4.71461 51.7523 4.4831 51.9432 4.2643 52.1342C3.95791 52.3986 3.68607 52.6347 3.88379 52.9002C3.94723 52.9843 4.07186 53.0852 4.19317 53.1828C4.27956 53.2523 4.36393 53.3203 4.42409 53.3794C4.3716 53.4677 4.31671 53.565 4.26345 53.6563C4.03711 53.7785 3.76904 53.994 3.88045 54.3188C3.82584 54.4145 3.77365 54.5033 3.71954 54.5983C3.60333 54.8076 3.49607 54.9879 3.38184 55.1964C3.34493 55.2623 3.30824 55.328 3.27188 55.3927C3.2715 55.3933 3.27113 55.3939 3.27075 55.3946C3.19875 55.5206 3.12283 55.6627 3.05089 55.7928C3.02006 55.8488 2.98964 55.9038 2.95965 55.9578C2.88115 56.1041 2.80307 56.2533 2.72996 56.3864C2.68898 56.4659 2.64892 56.5443 2.60992 56.619C2.54815 56.7334 2.48232 56.8718 2.42314 56.9889C2.32619 57.1853 2.23067 57.3947 2.15998 57.5654C2.1482 57.5962 2.11759 57.6184 2.07215 57.6336C2.02663 57.6487 1.97008 57.6577 1.91147 57.6593C1.85289 57.6607 1.79548 57.6529 1.75048 57.6301C1.70564 57.6074 1.67769 57.5712 1.67142 57.5298C1.63285 57.3034 1.62152 57.0592 1.61223 56.8247C1.60572 56.6847 1.60606 56.5232 1.60304 56.3868C1.60215 56.2983 1.60306 56.2061 1.60451 56.1129C1.6032 55.9544 1.6077 55.7786 1.61314 55.6066C1.61428 55.5425 1.61588 55.4773 1.61791 55.4111C1.62248 55.2566 1.63171 55.0899 1.63738 54.9394C1.63743 54.9385 1.63748 54.9376 1.63753 54.9366C1.64092 54.8604 1.64474 54.7832 1.64895 54.7058C1.66443 54.4608 1.67377 54.2443 1.69371 53.998C1.70241 53.8721 1.71074 53.7508 1.72112 53.6229C1.72672 53.5522 1.7325 53.4811 1.73834 53.4107C1.74173 53.3723 1.7455 53.333 1.7492 53.2939C1.82478 52.4089 1.91994 51.5348 2.03788 50.6533C2.15484 49.7751 2.29246 48.8963 2.44924 48.0216C2.60678 47.145 2.78385 46.272 2.98557 45.397C3.63802 42.7908 4.16021 40.3167 5.93038 37.3665C7.6389 34.5917 9.68187 32.1384 11.8732 29.9083C12.4585 29.3133 13.0731 28.7218 13.6833 28.159C14.3004 27.5906 14.9148 27.0484 15.5539 26.5102C15.7495 26.3452 15.9467 26.1813 16.155 26.0111Z" fill="#462713"/>
</svg>
