<svg width="28" height="28" viewBox="0 0 28 28" fill="none" xmlns="http://www.w3.org/2000/svg">
<path d="M14 28C10.0917 28 6.78125 26.6438 4.06875 23.9312C1.35625 21.2188 0 17.9083 0 14C0 10.0917 1.35625 6.78125 4.06875 4.06875C6.78125 1.35625 10.0917 0 14 0C16.0125 0 17.9375 0.415625 19.775 1.24688C21.6125 2.07812 23.1875 3.26667 24.5 4.8125V0H28V12.25H15.75V8.75H23.1C22.1667 7.11667 20.8906 5.83333 19.2719 4.9C17.6531 3.96667 15.8958 3.5 14 3.5C11.0833 3.5 8.60417 4.52083 6.5625 6.5625C4.52083 8.60417 3.5 11.0833 3.5 14C3.5 16.9167 4.52083 19.3958 6.5625 21.4375C8.60417 23.4792 11.0833 24.5 14 24.5C16.2458 24.5 18.2729 23.8583 20.0813 22.575C21.8896 21.2917 23.1583 19.6 23.8875 17.5H27.5625C26.7458 20.5917 25.0833 23.1146 22.575 25.0688C20.0667 27.0229 17.2083 28 14 28Z" fill="#FFDE98"/>
</svg>
